/* XPM */
static char * barriere_xpm[] = {
"32 32 401 2",
"  	c #FFFFFF",
". 	c #F0F0F0",
"+ 	c #E0E0E0",
"@ 	c #F3F3F3",
"# 	c #FEFEFE",
"$ 	c #FBFBFB",
"% 	c #F8F8F8",
"& 	c #F9F9F9",
"* 	c #F6F6F6",
"= 	c #DFDFDF",
"- 	c #F7F7F7",
"; 	c #ECECEC",
"> 	c #E6E6E6",
", 	c #EDEDED",
"' 	c #E3E3E3",
") 	c #F2F2F2",
"! 	c #EBEBEB",
"~ 	c #E4E4E4",
"{ 	c #E9E9E9",
"] 	c #E7E7E7",
"^ 	c #FDFDFD",
"/ 	c #E1E1E1",
"( 	c #FCFCFC",
"_ 	c #EFEFEF",
": 	c #FAFAFA",
"< 	c #D2D2D2",
"[ 	c #969696",
"} 	c #909090",
"| 	c #868686",
"1 	c #B3B3B3",
"2 	c #979797",
"3 	c #8C8C8C",
"4 	c #A5A5A5",
"5 	c #B4AAA2",
"6 	c #CE9966",
"7 	c #CF9968",
"8 	c #C18C5C",
"9 	c #956741",
"0 	c #DEDEDE",
"a 	c #E5E5E5",
"b 	c #EAEAEA",
"c 	c #E8E8E8",
"d 	c #ADA199",
"e 	c #CA9664",
"f 	c #CD9865",
"g 	c #BF8B5B",
"h 	c #8E623D",
"i 	c #D0CFD0",
"j 	c #F1F1F1",
"k 	c #B5AAA3",
"l 	c #CF9965",
"m 	c #C8915F",
"n 	c #C58E5C",
"o 	c #94653F",
"p 	c #AB9F97",
"q 	c #C38E5C",
"r 	c #C6905D",
"s 	c #B58051",
"t 	c #8D613C",
"u 	c #CFCFCF",
"v 	c #CF9964",
"w 	c #C68E5C",
"x 	c #C48D5C",
"y 	c #956640",
"z 	c #6D6E6D",
"A 	c #757575",
"B 	c #7B7B7A",
"C 	c #7B7B7B",
"D 	c #767676",
"E 	c #797979",
"F 	c #7B7A7A",
"G 	c #777777",
"H 	c #7C7C7C",
"I 	c #7E7E7E",
"J 	c #7D7C7D",
"K 	c #747474",
"L 	c #796453",
"M 	c #C28C5A",
"N 	c #C28B59",
"O 	c #B07C4E",
"P 	c #8E613C",
"Q 	c #CE9965",
"R 	c #C68E5D",
"S 	c #966640",
"T 	c #A6734A",
"U 	c #C48C5C",
"V 	c #C58E5D",
"W 	c #C8905F",
"X 	c #D29B66",
"Y 	c #D19B66",
"Z 	c #D19B65",
"` 	c #D19A66",
" .	c #D29A67",
"..	c #D19A65",
"+.	c #CC9563",
"@.	c #936C48",
"#.	c #C38C5B",
"$.	c #C18A58",
"%.	c #B17B4D",
"&.	c #A89D94",
"*.	c #956540",
"=.	c #A06D45",
"-.	c #B27A4B",
";.	c #B47B4D",
">.	c #BF8856",
",.	c #B67E4F",
"'.	c #B67E50",
").	c #C08957",
"!.	c #C7905D",
"~.	c #C78F5C",
"{.	c #C7905C",
"].	c #C58D5B",
"^.	c #C28A58",
"/.	c #C18A57",
"(.	c #926A46",
"_.	c #C38D5B",
":.	c #AF7B4D",
"<.	c #8F613C",
"[.	c #D3D3D3",
"}.	c #A69A91",
"|.	c #D09865",
"1.	c #C38D5C",
"2.	c #4E341E",
"3.	c #5C3C22",
"4.	c #593A20",
"5.	c #5C3B21",
"6.	c #5A3B21",
"7.	c #5B3B22",
"8.	c #5A3C21",
"9.	c #5B3B21",
"0.	c #5B3A20",
"a.	c #5A3A21",
"b.	c #5B3A21",
"c.	c #5A3A20",
"d.	c #593920",
"e.	c #6F5136",
"f.	c #C18B59",
"g.	c #B3A8A0",
"h.	c #CF9864",
"i.	c #946640",
"j.	c #8C5F3C",
"k.	c #996740",
"l.	c #9E6B41",
"m.	c #90603C",
"n.	c #968B86",
"o.	c #D9D9D9",
"p.	c #EEEFEF",
"q.	c #EAE9E9",
"r.	c #E5E5E4",
"s.	c #A1A0A0",
"t.	c #A19289",
"u.	c #B07C50",
"v.	c #B57E51",
"w.	c #A77349",
"x.	c #896241",
"y.	c #C28D5A",
"z.	c #B77F50",
"A.	c #92633E",
"B.	c #CE9864",
"C.	c #986841",
"D.	c #897A71",
"E.	c #98653E",
"F.	c #9E6940",
"G.	c #9C6840",
"H.	c #7E6557",
"I.	c #E3E4E3",
"J.	c #977A65",
"K.	c #CB9562",
"L.	c #CB925E",
"M.	c #B88052",
"N.	c #976640",
"O.	c #A5A09D",
"P.	c #8C7A6E",
"Q.	c #D09963",
"R.	c #B88051",
"S.	c #93643E",
"T.	c #A99E96",
"U.	c #C58D5C",
"V.	c #C48D5B",
"W.	c #DADADA",
"X.	c #9D9896",
"Y.	c #7C5231",
"Z.	c #91613B",
"`.	c #9C683F",
" +	c #94643D",
".+	c #7D5639",
"++	c #B6B4B3",
"@+	c #A1948A",
"#+	c #B38459",
"$+	c #C58E5B",
"%+	c #B47B4C",
"&+	c #A46E44",
"*+	c #9A8D86",
"=+	c #C3C3C3",
"-+	c #A4978E",
";+	c #C38D5A",
">+	c #B88150",
",+	c #92643E",
"'+	c #A59A90",
")+	c #CD9661",
"!+	c #93653F",
"~+	c #E2E2E2",
"{+	c #DCDCDC",
"]+	c #A29E9B",
"^+	c #8A5F3E",
"/+	c #99673D",
"(+	c #815B3A",
"_+	c #B38454",
":+	c #CA9561",
"<+	c #C9905C",
"[+	c #A77245",
"}+	c #8C6E5B",
"|+	c #A8A4A1",
"1+	c #A1958B",
"2+	c #B78151",
"3+	c #91643E",
"4+	c #D0D0CF",
"5+	c #B3A8A1",
"6+	c #CF9865",
"7+	c #B57E4F",
"8+	c #D9D9DA",
"9+	c #F9F9F8",
"0+	c #9F9C9A",
"a+	c #89623E",
"b+	c #C4915D",
"c+	c #CF9861",
"d+	c #BC8756",
"e+	c #845C38",
"f+	c #756861",
"g+	c #C4C4C4",
"h+	c #F8F9F8",
"i+	c #E9EAE9",
"j+	c #AA9F96",
"k+	c #D19964",
"l+	c #B87F51",
"m+	c #DBDBDB",
"n+	c #AEAEAD",
"o+	c #9E7959",
"p+	c #D09762",
"q+	c #BB8353",
"r+	c #704B2E",
"s+	c #8C5D38",
"t+	c #8D5D37",
"u+	c #887972",
"v+	c #D2D3D1",
"w+	c #FEFFFE",
"x+	c #ADA29A",
"y+	c #D09964",
"z+	c #B78051",
"A+	c #A99D95",
"B+	c #B47F50",
"C+	c #B7B5B4",
"D+	c #9B734C",
"E+	c #C4905C",
"F+	c #C18957",
"G+	c #C58E5A",
"H+	c #9D6C43",
"I+	c #A29C99",
"J+	c #8F7E74",
"K+	c #92613A",
"L+	c #9D683D",
"M+	c #98653D",
"N+	c #885D3A",
"O+	c #A4A09D",
"P+	c #A3968C",
"Q+	c #CE9862",
"R+	c #B47E4F",
"S+	c #D4D4D4",
"T+	c #F1F2F2",
"U+	c #A59991",
"V+	c #CB9662",
"W+	c #BCBCBB",
"X+	c #A79F99",
"Y+	c #B18256",
"Z+	c #BF8654",
"`+	c #A27957",
" @	c #8E827B",
".@	c #B7B4B2",
"+@	c #F5F5F5",
"@@	c #9A9491",
"#@	c #856147",
"$@	c #99663C",
"%@	c #9A683D",
"&@	c #92623B",
"*@	c #866B5B",
"=@	c #B9B8B7",
"-@	c #94857B",
";@	c #CF9862",
">@	c #CA9460",
",@	c #B0794B",
"'@	c #B2A69F",
")@	c #C48D5A",
"!@	c #9D734B",
"~@	c #C48F5E",
"{@	c #BE8654",
"]@	c #A1754B",
"^@	c #5F4025",
"/@	c #8C8C8B",
"(@	c #BDBDBD",
"_@	c #BEBEBE",
":@	c #8D8D8D",
"<@	c #51392A",
"[@	c #613F24",
"}@	c #7B5130",
"|@	c #794F2F",
"1@	c #5D3C23",
"2@	c #6F5137",
"3@	c #CB935F",
"4@	c #AC7549",
"5@	c #8F623C",
"6@	c #B9885B",
"7@	c #B68253",
"8@	c #6D4A2E",
"9@	c #835A38",
"0@	c #93663F",
"a@	c #A4774B",
"b@	c #A77A4F",
"c@	c #A5794D",
"d@	c #A87C51",
"e@	c #A77B4F",
"f@	c #A77B50",
"g@	c #A87B50",
"h@	c #A77B4E",
"i@	c #A5784C",
"j@	c #A6794D",
"k@	c #A6784C",
"l@	c #896545",
"m@	c #CF9963",
"n@	c #CB9460",
"o@	c #AA7448",
"p@	c #C28D5B",
"q@	c #B17B4C",
"r@	c #966740",
"s@	c #6F4B2D",
"t@	c #7A5332",
"u@	c #B07B4D",
"v@	c #BF8957",
"w@	c #C38C5A",
"x@	c #C48C5A",
"y@	c #C68F5C",
"z@	c #D19963",
"A@	c #D09A63",
"B@	c #D19965",
"C@	c #D19A64",
"D@	c #D09A64",
"E@	c #CA935E",
"F@	c #C38C59",
"G@	c #926B48",
"H@	c #CE9762",
"I@	c #A97448",
"J@	c #90623D",
"K@	c #A79A92",
"L@	c #CB9763",
"M@	c #AA7649",
"N@	c #96673F",
"O@	c #735032",
"P@	c #8A5D38",
"Q@	c #8C603B",
"R@	c #91643D",
"S@	c #8F613B",
"T@	c #91633C",
"U@	c #92633C",
"V@	c #8F613A",
"W@	c #91623B",
"X@	c #90623B",
"Y@	c #91623C",
"Z@	c #90613B",
"`@	c #90623C",
" #	c #825E3E",
".#	c #CB945F",
"+#	c #C38B5A",
"@#	c #C48E5D",
"##	c #B1B1B1",
"$#	c #CBCBCB",
"%#	c #B8B8B8",
"&#	c #BCBCBC",
"*#	c #BFBFBF",
"=#	c #CACACA",
"-#	c #BBBBBB",
";#	c #BABABA",
">#	c #B9B9B9",
",#	c #97897E",
"'#	c #AB7449",
")#	c #8E603B",
"!#	c #EEEEEE",
"~#	c #B6ACA4",
"{#	c #A87348",
"]#	c #CB9560",
"^#	c #C28B5A",
"/#	c #C4C1BE",
"(#	c #815F3F",
"_#	c #836140",
":#	c #6E4C30",
"<#	c #87756A",
"[#	c #F4F4F4",
"}#	c #CAC6C3",
"|#	c #876441",
"1#	c #83603F",
"2#	c #6F4D30",
"3#	c #86756A",
"4#	c #ECEBEB",
"  . +   @ + # @ + $ @ + % @ + & * = & % + - #   ; >   , '   ; + ",
"  . +   @ + # @ + $ ) + & @ + & * + & % + -     ! >   , '   ; + ",
"+ . # + , # + ,   ~ , # > ; # > { # > > # ] > # ^ & + ) $ + @ # ",
"+ .   + ,   / ,   ~ ,   > ;   > {   > >   ] >   # & + @ ( + @   ",
"# _ + # ) + ^ @ / : @ / % @ + % * + % % + - % / @ ^ # , ' # , / ",
"  _ < [ } | 1 @ + $ @ + & @ + & * + & & + - & + ' [ 2 3 4   ; + ",
"/ . 5 6 7 8 9 0 ^ a , ^ ] , ^ ] b ^ ] ] ^ c > ^ d e f g h i @ ^ ",
"+ j k l m n o =   a ,   > ,   ] b   ] ]   c >   p q r s t u @   ",
"( ( k v w x y z A B C D C E A F F G H H I I J K L M N O P a , ' ",
"  # k Q R x S T U V W X Y Z Z ` Y  .` ..+.x x x @.#.$.%.t ] ; + ",
"# . &.l n x *.=.-.;.>.,.'.,.,.,.).!.~.{.].^.$./.(._.^.:.<.[.) $ ",
"  _ }.|.].1.y 2.3.4.5.6.7.8.7.9.0.a.b.c.0.a.d.9.e.M f.:.<.u @ # ",
"a j g.h.].x i.j.k.l.m.n.o.p.( q.; ( r.s.t.u.v.w.x._.y.z.A.~ , a ",
"+ j 5 B.n #.C.2 D.E.F.G.H.4 I.> b u J.K.L.M.N.O.P.n Q.R.S.] ; + ",
": . T.h.U.V.S W.0 X.Y.Z.`. +.+++@+#+$+%+&+*+=+r.-+;+Q.>+,+[.j & ",
"  . '+|.)+N !+W.~+* {+]+^+/+(+_+:+<+[+}+|+p.& + 1+y.Q.2+3+4+@ # ",
"] _ 5+h.6+7+9 8+& c _ 9+0+a+b+c+d+e+f+g+h+! i+& j+_.k+l+3+~+, > ",
"+ . k B.|.7+i.m+  ~ W.n+o+p+~.q+r+s+t+u+v+{ > w+x+$+y+z+3+] ; + ",
"& . A+B.l B+!+W.> C+D+E+F+G+H+I+J+K+L+M+N+O+o.> P+Q.Q+R+3+S+T+& ",
"  . U+V+Q R+i.W+X+Y+Z+V.`+ @.@+@{ @@#@$@%@&@*@=@-@;@>@,@A.u @   ",
"] . '@)@|.,.y !@~@{@]@^@/@(@=+(@_@g+:@<@[@}@|@1@2@Q.3@4@5@~+, > ",
"+ . k ;+|.7+*.6@7@8@9@0@a@b@c@d@e@f@g@h@e@i@j@k@l@m@n@o@P ] ; + ",
"& _ A+p@6+q@r@s@t@u@v@w@^.x@y@z@A@B@C@D@E@F@^.N G@H@!.I@J@[.) % ",
"  _ K@p@L@M@N@O@P@Q@R@S@T@S@U@V@W@X@Y@X@X@X@Z@`@ #.#+#o@<.u @ # ",
"] . g.p@@#o@3+##$#%#&#$#%#*#=#-#;#$#;#>#$#;#-#$#,#3@+#'#)#~+!#> ",
"+ . ~#q 1.{#o m+  ~ ,   > ;   > b   ] ]   ] >   d ]#^#I@<.] , + ",
"% . /#(#_#:#<#b c * ) ] +@) c +@@ ] +@+@c [#+@] }#|#1#2#3#+ ) % ",
"  . 0 . a S+) @ + $ @ / & [#+ & * + & & + % & + . ! [.a ) + @   ",
"{ . - { !#- { !#- b !#- ! !#- ! ; - ! ! - 4#; - !#; * !#b - !#c ",
"+ .   + ,   + ,   ~ ,   > ;   ] {   > ]   ] ]   ; >   , '   , + ",
"* . b * j b * j b [#j { [#j { [#@ b [#[#b @ [#b ) [#b ) +@b j * ",
"  . +   @ + # @ + $ @ + & [#+ & * + & & + % & + [#& + @ $ / @   "};
