/* XPM */
static char * collec_xpm[] = {
"32 32 255 2",
"  	c #E6E6E6",
". 	c #F0F0F0",
"+ 	c #FFFFFF",
"@ 	c #EBEBEB",
"# 	c #FEFEFE",
"$ 	c #F1F1F1",
"% 	c #F5F5F5",
"& 	c #E7E7E7",
"* 	c #F9F9F9",
"= 	c #F8F8F8",
"- 	c #F4F4F4",
"; 	c #FDFDFD",
"> 	c #F3F3F3",
", 	c #F2F2F2",
"' 	c #DCDCDC",
") 	c #DFDFDF",
"! 	c #D6D6D6",
"~ 	c #E3E3E3",
"{ 	c #E5E5E5",
"] 	c #FAFAFA",
"^ 	c #F0F1F0",
"/ 	c #B2B2B2",
"( 	c #9B9B9B",
"_ 	c #AB5E5C",
": 	c #B52E2B",
"< 	c #B52D2A",
"[ 	c #B52D29",
"} 	c #B62D29",
"| 	c #B05152",
"1 	c #9A9A9A",
"2 	c #BEBEBE",
"3 	c #F6F6F6",
"4 	c #ECECEC",
"5 	c #EFEFEF",
"6 	c #D4CFD0",
"7 	c #976F6F",
"8 	c #C94443",
"9 	c #D2312D",
"0 	c #E13632",
"a 	c #E73833",
"b 	c #E33732",
"c 	c #D2322D",
"d 	c #B24342",
"e 	c #957777",
"f 	c #D8D5D5",
"g 	c #DADADA",
"h 	c #EAEAEB",
"i 	c #AB7D7C",
"j 	c #B52C26",
"k 	c #E73933",
"l 	c #DC3630",
"m 	c #91201C",
"n 	c #8B6E6E",
"o 	c #F0F0F1",
"p 	c #B38B8A",
"q 	c #E25852",
"r 	c #F2AAA6",
"s 	c #F19591",
"t 	c #E94740",
"u 	c #E83833",
"v 	c #DC342F",
"w 	c #B12926",
"x 	c #A28A89",
"y 	c #DBDBDB",
"z 	c #EEEEEE",
"A 	c #EDEDED",
"B 	c #AB8484",
"C 	c #DC514C",
"D 	c #F4B2AD",
"E 	c #F7C7C2",
"F 	c #F7C6C2",
"G 	c #EB6A66",
"H 	c #E73832",
"I 	c #E83733",
"J 	c #E93833",
"K 	c #DC3430",
"L 	c #AC2523",
"M 	c #9E8C8C",
"N 	c #E2E2E2",
"O 	c #ECEDEC",
"P 	c #AF9493",
"Q 	c #DF3F38",
"R 	c #F2ADA9",
"S 	c #F7C7C3",
"T 	c #F7C6C1",
"U 	c #F29E99",
"V 	c #E84742",
"W 	c #E73932",
"X 	c #E83832",
"Y 	c #E93832",
"Z 	c #BF2B27",
"` 	c #A82422",
" .	c #988A8A",
"..	c #AAAAAA",
"+.	c #D2332D",
"@.	c #F0837F",
"#.	c #F6C1BD",
"$.	c #F7C6C3",
"%.	c #F19D99",
"&.	c #E83933",
"*.	c #E63732",
"=.	c #E83632",
"-.	c #E93732",
";.	c #E33631",
">.	c #BC2A27",
",.	c #9E2120",
"'.	c #C4C4C4",
").	c #DEDEDE",
"!.	c #A46564",
"~.	c #E03630",
"{.	c #EB736D",
"].	c #ED7A75",
"^.	c #E94943",
"/.	c #E83732",
"(.	c #E03631",
"_.	c #B02825",
":.	c #8D7171",
"<.	c #AD2A27",
"[.	c #E73732",
"}.	c #BD2A28",
"|.	c #731514",
"1.	c #987372",
"2.	c #E73A34",
"3.	c #E63833",
"4.	c #E83731",
"5.	c #C82E29",
"6.	c #B02625",
"7.	c #746F6F",
"8.	c #9F7B7A",
"9.	c #E63832",
"0.	c #E63932",
"a.	c #B52C28",
"b.	c #B42C27",
"c.	c #D0332F",
"d.	c #CA2D2A",
"e.	c #B02524",
"f.	c #7E7979",
"g.	c #E8E8E8",
"h.	c #CCCCCC",
"i.	c #C94947",
"j.	c #DF3631",
"k.	c #901E1C",
"l.	c #3B3B3B",
"m.	c #5A5A5A",
"n.	c #5B5B5B",
"o.	c #515151",
"p.	c #4F0E0D",
"q.	c #C92F2B",
"r.	c #E73632",
"s.	c #E73531",
"t.	c #E83631",
"u.	c #C92D2A",
"v.	c #B02624",
"w.	c #9A4140",
"x.	c #C5C5C5",
"y.	c #D0302C",
"z.	c #E63831",
"A.	c #B82926",
"B.	c #000000",
"C.	c #D0D0D0",
"D.	c #D7D7D7",
"E.	c #D1D1D1",
"F.	c #737373",
"G.	c #6F1512",
"H.	c #E63731",
"I.	c #E73631",
"J.	c #E73630",
"K.	c #E73730",
"L.	c #C82D29",
"M.	c #9C2220",
"N.	c #B8B8B8",
"O.	c #F7F7F7",
"P.	c #B0B0B0",
"Q.	c #771A17",
"R.	c #861D19",
"S.	c #851D19",
"T.	c #851C18",
"U.	c #851C1A",
"V.	c #851C19",
"W.	c #841B19",
"X.	c #681512",
"Y.	c #AEAEAE",
"Z.	c #3E090A",
"`.	c #831B19",
" +	c #841B18",
".+	c #861C19",
"++	c #851B18",
"@+	c #841B1A",
"#+	c #741716",
"$+	c #621212",
"%+	c #5A1010",
"&+	c #C6C6C6",
"*+	c #B5B6B5",
"=+	c #CBCBCB",
"-+	c #C1C1C1",
";+	c #A3A3A3",
">+	c #C3C3C3",
",+	c #BFBFBF",
"'+	c #B6B6B6",
")+	c #CFCFCF",
"!+	c #939292",
"~+	c #B1B1B1",
"{+	c #B4B4B4",
"]+	c #929292",
"^+	c #6F6F6F",
"/+	c #B1B0B1",
"(+	c #E0E0E0",
"_+	c #525252",
":+	c #707070",
"<+	c #AAAAAB",
"[+	c #A8A9A9",
"}+	c #999999",
"|+	c #000001",
"1+	c #AFAFAF",
"2+	c #FDFEFE",
"3+	c #D4D4D4",
"4+	c #ABABAB",
"5+	c #A6A6A6",
"6+	c #D8D8D8",
"7+	c #989898",
"8+	c #7C7C7C",
"9+	c #E9E9E9",
"0+	c #D5D5D5",
"a+	c #BCBCBC",
"b+	c #8D8D8D",
"c+	c #A6A7A6",
"d+	c #C0C0C0",
"e+	c #D9D9D9",
"f+	c #B7B7B7",
"g+	c #AEAFAF",
"h+	c #B9B8B9",
"i+	c #CDCDCD",
"j+	c #E1E1E1",
"k+	c #EDEDEE",
"l+	c #C7C7C7",
"m+	c #EEEFEF",
"n+	c #A4A4A4",
"o+	c #CECECE",
"p+	c #A8A8A8",
"q+	c #FBFBFB",
"r+	c #EAEAEA",
"s+	c #ECECEB",
"t+	c #BDBDBD",
"u+	c #959595",
"v+	c #8C8C8C",
"w+	c #C2C2C3",
"x+	c #C9C9C9",
"y+	c #C2C2C2",
"z+	c #ECEDED",
"A+	c #F9FAFA",
"B+	c #BABABA",
"C+	c #9D9D9D",
"D+	c #8E8E8E",
"E+	c #919191",
"F+	c #9C9C9C",
"  . + @ @ # $   # % & * =   - ;   &   * *   > # & . # @ @ + .   ",
"$ , - $ $ % , $ % > $ > > ' ' ) ! ! ! ~ > . > - $ , % $ , % , $ ",
"+ - { ] ] & % # & ^ # / ( _ : < [ } [ | 1 2 ,   ; % & ] *   3 + ",
"& . # 4 @ ; .   5 6 7 8 9 0 a a a a a b c d e f g 5 # h @ # .   ",
"$ , - . $ - , ~ i j a a a a k a a a a a a a l m n { - o $ - , . ",
"# -   * *     p q r s t a a u a a a u a u a u v w x y * * & % # ",
"@ $ * z A 5 B C D E F G k a a a H a a a a u I J K L M N z * $ @ ",
"5 $ 3 . O P Q R S T U V a a a a a a W a a I u X Y Z `  .A 3 , 5 ",
"# - { * ..+.@.#.$.%.&.a a a a a a a *.a I =.=.=.-.;.>.,.'.  % # ",
"4 $ * ).!.~.&.{.].^.a W a a a a a a H *.a /.=./.-.X (._.:.. $ @ ",
"4 $ = ! <.u W X k H H H a a a a a a *.*.[.=.=.=.=.=./.}.|.@ $ 4 ",
"; > ~ 1.2.a a W H W W W H H 3.a W a a *.*.[.=.=.=.=.4.5.6.7.% ; ",
"4 $ * 8.I a a a H H H H 9.0.a.a.a.b.c.*.*.=.=.=./.=.4.d.e.f.$ 4 ",
"g.. h.i.[.H *.9.*.9.a *.j.k.l.m.n.o.p.q.r.r.s.t.s.r.t.u.v.w.x.& ",
"g.. 2 y.9.*.*.*.z.*.*.z.A.B.C.D.E.  F.G.H.s.I.s.J.s.K.L.v.M.N.& ",
"O., P.Q.R.S.S.T.U.V.T.W.X.B.! ! - N.Y.Z.`. +V..+T.++@+#+$+%+&+= ",
"% , *+B.B.B.B.B.B.B.B.B.B.B.=+- # -+;+B.B.B.B.B.B.B.B.B.B.B.>+% ",
"g.. ,+C.{   { { { { { { '+B.)+!+~+{+]+^+{ { { { { { { )+-+/+N.& ",
"g.$ g C.# # # ; ; ; ; ; (+_+:+<+[+}+|+1+; ; ; 2+; ; ; { 3+4+C.& ",
"$ , % 5+; # # ; ; ; ; ; ; 6+B.B.B.B.7+- ; # # # ; ; ; ) 3+8+, . ",
"; %   2 & # # # # # ; ; ; ; ; ; ; ; ; ; # # # # ; ; 9+0+a+5+% ; ",
"4 $ * 6+2 # # ; ; ; ; ; ; ; ; ; ; ; ; ; # # # # ; * ) 0+b+A $ 4 ",
"5 , 3 4 c+  # # ; ; ; ; ; ; ; ; ; ; ; ; # # # # ; $ 0+2 -+- , . ",
"# -   ] )+N.= # # ; ; ; ; ; ; ; ; ; ; ; ; ; ; ; = g d+2 * & % # ",
"4 $ * z A e+f+O.; ; ; ; ; ; ; ; ; ; ; ; ; ; ; O.y '.P.g.z * $ 4 ",
"4 $ ] z z ] =+g+  , ; ; ; ; ; ; ; ; ; ; ; ] z g x.h+] A z ] $ 4 ",
"# - & * * & % i+f+e+j+= ; ; ; ; ; ; ; ; k+) ! l+;+A g.* * & % # ",
"5 , 3 $ . 3 , m+h.n+..i+0+& z z z g.0+0+0+o+..p+-+, 3 $ . O., 5 ",
"@ $ q+z z ] $ r+] s+t+u+v+w+0+0+0+0+0+x+b+7+y+$ @ $ q+z+z q+$ @ ",
"+ -   A+] & % #   . ; r+@ B+C+C+D+E+F+p+r+# > g.; %   * * & O.+ ",
". , % $ $ % , . % > . > - . . . - , . - - . > % . , % $ $ 3 % . ",
"& . # @ @ # $ & # %   * *   { { ; -   * ] & > # & . # @ 4 + . & "};
