/* XPM */
static char * collec_xpm[] = {
"64 64 323 2",
"  	c #888888",
". 	c #878787",
"+ 	c #868686",
"@ 	c #717171",
"# 	c #1A0505",
"$ 	c #404040",
"% 	c #848484",
"& 	c #8A8A8A",
"* 	c #706F70",
"= 	c #838383",
"- 	c #444444",
"; 	c #727272",
"> 	c #8C8C8C",
", 	c #707070",
"' 	c #777777",
") 	c #6C6C6C",
"! 	c #898989",
"~ 	c #797979",
"{ 	c #8B8B8B",
"] 	c #7F7F7F",
"^ 	c #6B6B6B",
"/ 	c #7E7E7E",
"( 	c #717070",
"_ 	c #666666",
": 	c #6A6A6A",
"< 	c #716F70",
"[ 	c #767676",
"} 	c #7D7D7D",
"| 	c #71716F",
"1 	c #7E7E7D",
"2 	c #717170",
"3 	c #000000",
"4 	c #727071",
"5 	c #A78D5E",
"6 	c #D6B149",
"7 	c #FAD463",
"8 	c #FAD363",
"9 	c #FAD35E",
"0 	c #FAD462",
"a 	c #B4912E",
"b 	c #020001",
"c 	c #B29961",
"d 	c #F4D778",
"e 	c #F9D360",
"f 	c #F9CB4D",
"g 	c #F9CB4F",
"h 	c #F9CB4B",
"i 	c #F9CB50",
"j 	c #F8C94C",
"k 	c #F9D766",
"l 	c #EACA5F",
"m 	c #676767",
"n 	c #717071",
"o 	c #EBBB25",
"p 	c #FADC7A",
"q 	c #F7D46F",
"r 	c #E19F05",
"s 	c #A46F0F",
"t 	c #9F6B0F",
"u 	c #A56F10",
"v 	c #9F6A0E",
"w 	c #BA7D0D",
"x 	c #EEAF0C",
"y 	c #FACB4E",
"z 	c #E7C15F",
"A 	c #ECBB2B",
"B 	c #FBDD7C",
"C 	c #F7D36F",
"D 	c #D59617",
"E 	c #BF8838",
"F 	c #E5A506",
"G 	c #FAC639",
"H 	c #D89E0C",
"I 	c #646464",
"J 	c #626262",
"K 	c #FAD569",
"L 	c #DF9E06",
"M 	c #B97C0C",
"N 	c #E8AA07",
"O 	c #EDB106",
"P 	c #565656",
"Q 	c #737373",
"R 	c #616161",
"S 	c #020202",
"T 	c #535352",
"U 	c #D0A118",
"V 	c #FAE696",
"W 	c #D7A541",
"X 	c #BA8436",
"Y 	c #EEB008",
"Z 	c #C0880D",
"` 	c #5C5C5C",
" .	c #454545",
"..	c #616061",
"+.	c #636363",
"@.	c #855B18",
"#.	c #ECB20F",
"$.	c #F2D178",
"%.	c #C98C06",
"&.	c #040203",
"*.	c #020101",
"=.	c #DC9905",
"-.	c #EFB408",
";.	c #8C6114",
">.	c #7A7A7A",
",.	c #7F5616",
"'.	c #EEB411",
").	c #ECCB80",
"!.	c #C18105",
"~.	c #D48D03",
"{.	c #EEB208",
"].	c #885D12",
"^.	c #757575",
"/.	c #7E5516",
"(.	c #EDB40F",
"_.	c #ECCB7E",
":.	c #C07F05",
"<.	c #6F6F6F",
"[.	c #787878",
"}.	c #D48E03",
"|.	c #EDB108",
"1.	c #875C12",
"2.	c #707170",
"3.	c #815918",
"4.	c #F1B506",
"5.	c #EEB310",
"6.	c #C78706",
"7.	c #70706F",
"8.	c #D79508",
"9.	c #F1B408",
"0.	c #8D6113",
"a.	c #686868",
"b.	c #747474",
"c.	c #C48C10",
"d.	c #FCC104",
"e.	c #DB9A04",
"f.	c #EDAE06",
"g.	c #CC930F",
"h.	c #828282",
"i.	c #F6BB07",
"j.	c #E5A605",
"k.	c #B0760C",
"l.	c #D09207",
"m.	c #F6B907",
"n.	c #818181",
"o.	c #E9A806",
"p.	c #CE8B08",
"q.	c #EEB006",
"r.	c #DA9C06",
"s.	c #D28F0C",
"t.	c #F4B908",
"u.	c #E3A307",
"v.	c #B07608",
"w.	c #C5850B",
"x.	c #F0B206",
"y.	c #ECAE09",
"z.	c #8C5C0A",
"A.	c #C0830B",
"B.	c #EAB108",
"C.	c #EFB50A",
"D.	c #CD920D",
"E.	c #C78C0C",
"F.	c #CA8F0D",
"G.	c #DA9D0B",
"H.	c #EBAC07",
"I.	c #D29108",
"J.	c #E9AA05",
"K.	c #E9A905",
"L.	c #EAAA05",
"M.	c #E09E06",
"N.	c #A8710B",
"O.	c #855C23",
"P.	c #D99403",
"Q.	c #DA9603",
"R.	c #D08D0F",
"S.	c #7B5E45",
"T.	c #EAAD06",
"U.	c #F8BD06",
"V.	c #BF8410",
"W.	c #818281",
"X.	c #89783D",
"Y.	c #918967",
"Z.	c #8F8863",
"`.	c #8F8763",
" +	c #A97315",
".+	c #F8CE3D",
"++	c #FBDB6E",
"@+	c #FBDD72",
"#+	c #FBD867",
"$+	c #DE9E0A",
"%+	c #895C11",
"&+	c #AD7409",
"*+	c #A8700A",
"=+	c #AB7208",
"-+	c #AD7209",
";+	c #6D6D6D",
">+	c #575757",
",+	c #595959",
"'+	c #5E442A",
")+	c #B3760D",
"!+	c #B2760C",
"~+	c #62441B",
"{+	c #5F5F5F",
"]+	c #030301",
"^+	c #775635",
"/+	c #D58C03",
"(+	c #E7A808",
"_+	c #866520",
":+	c #030203",
"<+	c #808080",
"[+	c #020200",
"}+	c #755639",
"|+	c #E7AA0B",
"1+	c #F9D769",
"2+	c #917423",
"3+	c #76593C",
"4+	c #EAB00A",
"5+	c #FADD7B",
"6+	c #907223",
"7+	c #6E6E6E",
"8+	c #696969",
"9+	c #775B3D",
"0+	c #FBDC79",
"a+	c #917322",
"b+	c #848585",
"c+	c #70706E",
"d+	c #75593C",
"e+	c #EBB10B",
"f+	c #FBDD79",
"g+	c #917222",
"h+	c #75593B",
"i+	c #FADE78",
"j+	c #8F7323",
"k+	c #7E7F7F",
"l+	c #755838",
"m+	c #EAB209",
"n+	c #FBDE78",
"o+	c #917323",
"p+	c #755939",
"q+	c #EBB109",
"r+	c #917324",
"s+	c #775A3B",
"t+	c #EBB108",
"u+	c #927323",
"v+	c #775A3C",
"w+	c #EBB007",
"x+	c #765A3C",
"y+	c #EBB107",
"z+	c #FBDE77",
"A+	c #917424",
"B+	c #FBDE7B",
"C+	c #EBB106",
"D+	c #FBDC77",
"E+	c #907324",
"F+	c #7E7F7E",
"G+	c #785C3F",
"H+	c #EBB006",
"I+	c #FADC75",
"J+	c #937424",
"K+	c #656565",
"L+	c #775B3F",
"M+	c #FBDE79",
"N+	c #927521",
"O+	c #7B7B7B",
"P+	c #5D5D5D",
"Q+	c #8F721D",
"R+	c #775C3D",
"S+	c #93751D",
"T+	c #F5C022",
"U+	c #FBC417",
"V+	c #F1BB1C",
"W+	c #D8AD25",
"X+	c #D1A61D",
"Y+	c #7C7C7C",
"Z+	c #775B3E",
"`+	c #ECAF06",
" @	c #FCDD79",
".@	c #93731C",
"+@	c #E1A405",
"@@	c #FDC205",
"#@	c #DCA00A",
"$@	c #EBAF06",
"%@	c #FBDD7A",
"&@	c #92731B",
"*@	c #E2A304",
"=@	c #FCC105",
"-@	c #E8B644",
";@	c #ECAF07",
">@	c #FBDD77",
",@	c #94751C",
"'@	c #E3A404",
")@	c #FDC204",
"!@	c #FAC737",
"~@	c #EEC84F",
"{@	c #EBC54F",
"]@	c #785C3E",
"^@	c #FBDC76",
"/@	c #95741C",
"(@	c #DE9C06",
"_@	c #F9BD06",
":@	c #E2A609",
"<@	c #EBAF08",
"[@	c #FADB78",
"}@	c #94741D",
"|@	c #D68E04",
"1@	c #F0B205",
"2@	c #E7A807",
"3@	c #75593D",
"4@	c #ECAF08",
"5@	c #94731C",
"6@	c #D48D06",
"7@	c #D99306",
"8@	c #E7A806",
"9@	c #E8A907",
"0@	c #E8A909",
"a@	c #785B3B",
"b@	c #E8A807",
"c@	c #F5BD27",
"d@	c #8C6A1E",
"e@	c #5F4F40",
"f@	c #BD7F09",
"g@	c #C78E08",
"h@	c #604B23",
"                          . . . . + + @ # $ % & . . .                 *           . = - # ; > .                               . ",
", , , , , , , , , , , , , , , , , , , ' # ) ! ~ , , , , , , , , , , , , , , , , , , , ) # { ] @ @ @ , , , , @ @ @ , , , , , , , ",
", , , , , , , , , , , , , , , , , , , , # ^ / @ @ , , ( , , , , , , , , , , , , , , , _ # % ; @ @ @ , , ( , @ @ @ @ , , , , , , ",
", , , , , , , , , , , , , , , , , , , , # : ' @ @ @ * < , , , , , , , , , , , , , , , _ # / @ @ @ @ @ ( < , , ( , @ , , , , , , ",
"@ @ , , , , , , , , , , , , , , , , , , # : [ @ @ * * < , , * < , , , * , , , * , , , _ # / @ @ @ @ @ , < , , , , @ @ , , , , , ",
", , , , , , , , , , , , , , , , , , , , # : [ * * * * , , * * * * , * * , , , * , * , _ # } @ @ @ @ | @ , , , , @ | @ , , , , , ",
", , , , , , , , , , , , , , , , , , , , # : [ * * * * * * * < , * * * * * * , * * * , _ # 1 @ @ @ @ | @ @ < , , , @ , , , , , , ",
", , @ @ ( , , , , , , ( , , , ( , , , , # : [ * * * * , , * ( , , , , , , * * * * * * _ # } ( @ @ , 2 @ ( ( , ( ( @ , , , , , , ",
", @ @ @ < , , , , , , < @ , , < , , , , # * * * * * , , 3 3 3 3 3 3 3 3 , < ( * * * * _ # } 4 @ @ @ @ ( < , , < < , , @ ( , , , ",
", @ @ @ , < , , , , , , @ < ( ( , , , , # * * * * , < 3 5 6 7 8 9 0 0 a 3 < @ * * * * _ # } 4 @ @ @ @ < < , @ < < , < @ , < , , ",
", , , , , , , , , < , , , < ( @ , , , , b * * * , , 3 c d e f g h i j k l 3 @ , * * * m # } , @ @ @ , @ , , n , , , < < , , , , ",
", , , , | , , , , n , , , ( @ @ , , , * b : * @ @ 3 o p q r s t u v w x y z 3 , , * * _ # / , @ @ @ @ @ , < ( , , , , , , , , , ",
", * , , | @ , , , , , , , , , , , , @ * # : [ @ 3 A B C D , , , , , , E F G H 3 , * * I # ] @ @ @ @ @ , @ n , , , , , , , , , , ",
", , , , , , , , , , , , , , , , , , @ J # * , , 3 K q L , , * * * * , , M N O 3 , , * P # Q @ @ @ @ , , @ @ , , , , , , , , , , ",
"J J R R R J R R J J R J J J J R J J J # # S T 3 U V W R R J * * * * J J J X Y Z 3 J ` b #  ...+.J J J J J +.J J J J J J J J J J ",
"# # # # # # # # # # # # # # # # # # # b b S # @.#.$.%.# # &.# # # # *.# # # =.-.;.# b b # # # # # # # # # # # # # # # # # # # # ",
". . . . .   . >.# # # . . . . . . . * * * * 3 ,.'.).!.. . .   # # # > + . . ~.{.].3 * * * *       .     . . ! # # # > . . . . . ",
"@ @ @ @ @ , , ^., # , , @ @ @ @ , , , , , , 3 /.(._.:., , , <.>.# [.! ^., , }.|.1.3 * , , * , , , , , @ @ , <.2.# > = @ @ @ , , ",
"@ @ @ @ , , , , , # , @ , @ @ , , , , , , * 3 3.4.5.6., , , , 7.# ~ [ , , , 8.9.0.3 * , * , , , , , , , , , , a.# . b.@ , , , , ",
"@ @ @ @ , , , , , # , @ , , , , , , , * * * , 3 c.d.e., , * , 7.# ~ * , , , f.g.3 * * * * * , * , , , , , , , m # h.@ , , , , , ",
"@ * @ @ < ( , , , # , , , , * , , , , * * , , , 3 i.j.k., , , * # [., 7., l.m.3 , , * * * * * * , , , , , , , m # n.@ < , , , , ",
"@ * , < < ( , , , # , , < < < , , , , , * * , , , 3 |.o., , , , # ' , , p.q.r.3 , * * * * * * , , < , , , , , m # n.( , , , , , ",
"@ * , < * , , , , # , , < ( ( , , , , , * * * , , 3 s.t.u.v., , # ' , w.x.y.z.3 , * , * * * , , ( < , , , , , a.# n.< , , , , , ",
"@ @ @ n 2 @ , , , # , , < 2 @ @ , , , , , * * * , , 3 A.B.C.D.E.F.E.G.H.I.3 3 , , * * * * * , , < < @ , , , 7.a.# n.< , @ , * * ",
"@ @ @ @ | @ , , , # , , ( | @ , < , , , , * * * * , , 3 3 w F J.K.L.M.N.3 , , , , * * * * * , , , , , , , , 7.a.# n.@ , , , , , ",
"@ @ @ @ @ @ , , , # , < @ @ < < , , ( , , , * * * , , , 3 3 O.P.Q.R.3 3 3 , , , * * * * * * , < < , , , , , , a.# n.@ , , , , , ",
"@ @ @ @ @ , , , , # , ( @ @ < , < < , , , < * < < , * , < 3 S.T.U.V.3 , * * * * * * , * * * , < , , , , , , , a.# W.@ , , , , , ",
"@ @ , , < , , , , # , @ ( ( ( @ ( ( , , , ( * * ( , * , ( 3 X.Y.Z.`.3 , * * * * * * * * * , , , , ( , , , , <.m # h.@ , , , , , ",
"@ * , , , , , , , # , , < < , @ , , , , , , < , * * * * 3  +.+++@+#+$+3 , * * * * * * * * , , , , < , , , , <.m # n., , , , , , ",
"@ , , , @ , , _ , # , @ @ @ | @ , , , , , , @ @ * * * * 3 %+&+*+=+-+%+3 , * * * * * * * , , , , , , , , , , ;+>+# ~ , , , , , , ",
"m m m m a.m m ,+# # # a.m a.a.m m m m m m m a.* * * * * m 3 '+)+!+~+3 m m a.* * * * _ m a.m m m m a.m m m m {+# # # _ m m m m m ",
"# # # # # # # # # # # # # # # # # # # # # # # # # S # S ]+# ^+/+(+_+# :+S # # # *.b # # # # # # # # # # # # # # # # # # # # # # ",
"n.<+<+<+<+<+<+<+<+<+<+<+n.<+n.n.<+<+<+# # # [./ ] <+<+[+S 3 }+|+1+2+3 * * * * * * ] / # # # ] ] <+<+<+<+<+<+] ] <+<+<+<+<+<+n.<+",
"@ , , , , , , , , , , , , , @ 2 @ , @ ~ # a.{ } * * @ * , 3 3+4+5+6+3 * * * * * , , ; 7+# > + @ , , , , @ , , , , , , <., , , , ",
"@ , , , , , , , , , , , , , , , , , , , # 8+/ * * * , , , 3 9+4+0+a+3 * * * * * * * * _ # b+; @ , , , , , , , @ , , , , c+, , , ",
", , , , @ , , , @ , , , , , , , , , , , # ^ [ , * , * , , 3 d+e+f+g+3 * * * * * * * , _ # / , , , , , , , , , @ , , , , , , , , ",
", , , , , , , , , , , , , , , , , , , , # : ' , * , * , , 3 h+4+i+j+3 * * * , , , , , _ # k+, , , , , , , , , , , , , , , , , , ",
", , , , , , , , , , , , , , , , , , , , # : ' < * , * , , 3 l+m+n+o+3 * * * , * * , , _ # / ( ( ( , , , , , , , , , , , , , , , ",
", , , , , , , , , , , , , , , , , , , , # : [ < * , * * , 3 p+q+f+r+3 * * * * * , , , m # / < ( < < , , , , , , , , , , , , , , ",
"@ , , , , , , , , , , , , , , , , , , , # 8+[ , * , * , , 3 s+t+0+u+3 * * * , , , * * _ # / , @ , , < , , , , , , , , , , , , , ",
", , , , , , , , , , , , , @ @ , , , , , # 8+[ @ * * * , , 3 v+w+f+r+3 * * * * , * * , _ # 1 @ @ , , , @ , , , @ , , , , @ , , , ",
", , , , , , , , , , , , , @ @ < , , , , # 8+[ @ , * * , , 3 x+y+z+A+3 * * * * , * * , _ # / , , < , , , , , , , , , , , , , , , ",
", , , , , , , , , , , , , @ @ < , , , , # 8+[ , * * * , , 3 x+y+B+a+3 * * * * * * , * _ # / n n < , , , , , , , , , , , , , , , ",
", , , , , , , , , , , , , , @ < , , , , # 8+[ * * * , , , 3 x+C+D+E+3 , * * * * * * * _ # F+4 < , , , , , , , , , , , , , , , , ",
", , , , , , , , , , , , , @ @ , , , , <.# ^ ' * * * , , , 3 G+H+I+J+3 , * * * * * * * K+# ] @ , , , , , , , , , , , , , , , , , ",
", , , , , , , , , , , , , @ @ @ , , , I # _ b., @ * * , , 3 L+H+M+N+3 , , , , , , , 7+>+# O+, @ , , , , , , , , , , , , , , , , ",
"8+8+8+8+8+8+8+8+8+8+8+8+8+8+: 8+8+8+8+# # # P+: 8+8+8+, , 3 9+C+n+Q+3 3 3 3 3 8+8+* {+# *.# 8+8+8+8+8+8+8+8+8+8+8+a.a.8+8+8+a.a.",
"# # # # # # # # # # # # # # # # # # # # # # # # # # # # S # R+H+I+S+T+U+V+W+X+# # S b b # # # # # # # # # # # # # # # # # # # # ",
"Y+O+O+O+O+O+O+# # # , O+>.O+>.O+O+O+>.>.>.O+>.* * * * * * 3 Z+`+ @.@+@@@#@3 3 O+O+* * * >.Y+O+O+O+O+O+>.>.>.# # # , >.~ >.>.>.>.",
"b.b.b.b.b.b.b.[.# , , , ^.^.b.b.b.b.b.b.b.b.Q Q Q Q * * * 3 Z+$@%@&@*@=@-@3 3 b.Q * * b.b.b.b.b.b.b.b.b.b.Q Q # ,   , b.b.b.Q Q ",
"@ @ , , , , , , # , , , , < , , , , < , , , , , , , * * * 3 9+;@>@,@'@)@!@~@{@3 , * , , , , , , , , , , , , , # , + b., , , , , ",
"@ @ , < , , , , # , , , < , @ @ , ( | | @ , , , , , , * * 3 ]@`+^@/@(@_@:@3 3 , , * * * , , , , , , , , , , , # , n., , , , , , ",
"@ @ , * , , , , # , , , n 2 2 ( , ( 2 2 @ , , , , < , * * 3 G+<@[@}@|@1@2@3 3 , , * * * @ , , , @ , @ @ , , , # , n., , , , , , ",
"@ @ , @ , , , , # , , @ @ | @ ( , , , , < , , , , < * * * 3 3@4@%@5@6@7@8@9@0@3 , * * * @ , , , @ , @ ( , , , # , n.@ , , , , , ",
"@ @ , @ < , , , # , , @ @ @ @ ( < , , , , , , , , * * * * 3 a@b@c@d@3 3 3 3 3 , , * , , , < , < , , @ ( , , , # , n.@ , , , , , ",
"@ @ , @ < , , , # , , < , @ @ , , , , , , , , , , , , * * 3 e@f@g@h@, < < , , , * * , , , , , < , < @ @ , , , # , n., , , , , , ",
"@ @ @ @ , , , , # , , , , , , , , , , , , , , , , , , * * , 3 3 # 3 , < , , * * * * * * , , , , , < @ , , , , # , , , , , , , , ",
"@ @ @ , , , , , # , , @ @ , @ , , , , , , , , , , , , * * * , , # ~ , , * * * * * * , , , , , @ @ ( @ , , , , # , , , , , , , , ",
"@ @ , , , , , , # , , @ @ @ @ @ , , , , , , @ , , , * * * * , * b ~ , , * * , , * * , , , , , , @ @ @ , , , , # , , , @ , , , , ",
"@ @ , , , , , , # , ~ @ @ @ @ n , , , , , , , , , , , , , , , , # ~ , , , * * , , , , , , , , < @ @ @ , , , , # , , , * , * , , ",
"@ n , , @ , , , # , ~ @ @ n < < , , , , , , , , , , , , , , , , # >., , 4 < * , , , , , , , , , , n @ ( , , , # , , , , , , , , ",
"@ n , , @ , , ) # , [.@ @ @ < , , , , , , , , , , , , , , , , K+*.* , @ * * * , , , , , , n , , , , , , , , <.# , , , * , , , , ",
"<.<.7+<.<.<.7+# # # , <.<.<.<.7+7+7+7+7+7+7+7+* * * * 7+7+7+: b b b 7+* * * * <.7+<.<.<.<.<.<.<.<.7+<.<.7+7+# # # , 7+7+7+7+7+7+",
"# # # # # # # # # # # # # # # # # # # # # # # # # # # # S # # # # # # b # # # # # # # # # # # # # # # # # # # # # # # # # # # # "};
