/* XPM */
static char * floor_xpm[] = {
"32 32 35 1",
" 	c #368E63",
".	c #368D63",
"+	c #358D63",
"@	c #70A442",
"#	c #368C64",
"$	c #368D64",
"%	c #71A442",
"&	c #1B726C",
"*	c #19716C",
"=	c #1A716D",
"-	c #1A716C",
";	c #1B716C",
">	c #0F5566",
",	c #71A441",
"'	c #19716D",
")	c #70A441",
"!	c #1A726D",
"~	c #358D64",
"{	c #70A443",
"]	c #105566",
"^	c #378D64",
"/	c #105567",
"(	c #1B726D",
"_	c #368C63",
":	c #368E62",
"<	c #1A726C",
"[	c #19706D",
"}	c #0F5567",
"|	c #70A541",
"1	c #1B716D",
"2	c #0D5467",
"3	c #0E5566",
"4	c #378C64",
"5	c #0F5666",
"6	c #0E5467",
" ...............+.............. ",
"................@@#.............",
".......+...+@$...@@.............",
".......%@+.%@+......&*...=-;....",
".......+@@+%+.......>,' *@)!....",
"........+$........$-*~{=@{)]....",
".......+..........-%@=^].@#]....",
"......+%%.........--..]/..>(....",
".+@,++@@+.....................+$",
"..#@@#.+.....................{@.",
"............................@@#$",
"............................+...",
"................................",
"................................",
"................................",
"................................",
"................................",
"................................",
"....._@.........................",
".....@)+......-=................",
".+@+.@+.:=<=:[%@*$.........+,+..",
"..@@+$..=,@.}@@@|1........+@@#..",
".._@....=-~%2)#3}>$...@@@#.%+_@{",
".....................$+@%@+..@@+",
".......=-;.....+................",
"..$-=1=)@}..._@@@#..............",
"..-%@4}@.5...@@@+...............",
"..--+|6.>1....++................",
"................................",
"................................",
"................................",
" .............................. "};
