/* XPM */
static char * floor_xpm[] = {
"64 64 73 1",
" 	c #888888",
".	c #878787",
"+	c #868686",
"@	c #717171",
"#	c #1A0505",
"$	c #404040",
"%	c #848484",
"&	c #8A8A8A",
"*	c #838383",
"=	c #444444",
"-	c #727272",
";	c #8C8C8C",
">	c #707070",
",	c #777777",
"'	c #6C6C6C",
")	c #898989",
"!	c #797979",
"~	c #8B8B8B",
"{	c #7F7F7F",
"]	c #6B6B6B",
"^	c #7E7E7E",
"/	c #717070",
"(	c #666666",
"_	c #6A6A6A",
":	c #716F70",
"<	c #767676",
"[	c #71716F",
"}	c #7D7D7D",
"|	c #7E7E7D",
"1	c #717170",
"2	c #706F70",
"3	c #717071",
"4	c #727071",
"5	c #676767",
"6	c #6E6E6E",
"7	c #646464",
"8	c #626262",
"9	c #5A5A5A",
"0	c #565656",
"a	c #737373",
"b	c #616161",
"c	c #535352",
"d	c #636363",
"e	c #626162",
"f	c #5C5C5C",
"g	c #525252",
"h	c #454545",
"i	c #616061",
"j	c #7A7A7A",
"k	c #757575",
"l	c #6F6F6F",
"m	c #787878",
"n	c #707170",
"o	c #70706F",
"p	c #686868",
"q	c #747474",
"r	c #828282",
"s	c #818181",
"t	c #818281",
"u	c #5D5D5D",
"v	c #6D6D6D",
"w	c #575757",
"x	c #595959",
"y	c #5F5F5F",
"z	c #808080",
"A	c #696969",
"B	c #848585",
"C	c #70706E",
"D	c #7E7F7F",
"E	c #7E7F7E",
"F	c #656565",
"G	c #7B7B7B",
"H	c #7C7C7C",
"             ....++@#$%&...              .*=#-;.               .",
">>>>>>>>>>>>>>>>>>>,#')!>>>>>>>>>>>>>>>>>>>'#~{@@@>>>>@@@>>>>>>>",
">>>>>>>>>>>>>>>>>>>>#]^@@>>/>>>>>>>>>>>>>>>(#%-@@@>>/>@@@@>>>>>>",
">>>>>>>>>>>>>>>>>>>>#_,@@@>:>>>>>>>>>>>>>>>(#^@@@@@/:>>/>@>>>>>>",
"@@>>>>>>>>>>>>>>>>>>#_<@@>>:>>>:>>>>>>>>>>>(#^@@@@@>:>>>>@@>>>>>",
">>>>>>>>>>>>>>>>>>>>#_<[@>>>>>>>>>>>>>>>>>>(#}@@@@[@>>>>@[@>>>>>",
">>>>>>>>>>>>>>>>>>>>#_<[@:>>>::>>>>>>>>>>>>(#|@@@@[@@:>>>@>>>>>>",
">>@@/>>>>>>/>>>/>>>>#_<1@:>>>2/>>>>>>>:>>>>(#}/@@>1@//>//@>>>>>>",
">@@@:>>>>>>:@>>:>>>>#_<>3:>>>>>>>>>>>:/>>>>(#}4@@@@/:>>::>>@/>>>",
">@@@>:>>>>>>@://>>>>#_<::>::>>>>>>>>>:@>>>>(#}4@@@@::>@::>:@>:>>",
">>>>>>>>>:>>>:/@>>>>#_<>>>::>>>>>>>>>/@>>>>5#}>@@@>@>>3>>>::>>>>",
">>>>[>>>>3>>>/@@>>>>#_<@@>>>@>>>>>>>>@@>>>>(#^>@@@@@>:/>>>>>>>>>",
">>>>[@>>>>>>>>>>>>@6#_<@>>>>>>>>>>>>>>>>>>>7#{@@@@@>@3>>>>>>>>>>",
">>>>>>>>>>>>>>>>>>@8#9>>>>>>>>>>>>>>>>>>>>_0#a@@@@>>@@>>>>>>>>>>",
"88bbb8bb88b8888b888###cdb88bb8bb8b888e8888fg#hid88888d8888888888",
"################################################################",
"..... .j###................... ###;+..    ..     .  ..)###;.....",
"@@@@@>>k>#>>@@@@>>>>>>>>>>>>>>lj#m)k>>>>>@>>>>>>>>>@@>ln#;*@@@>>",
"@@@@>>>>>#>@>@@>>>>>>>@@>>>>>>>o#!<>>>>>>@>>>>>>>>>>>>>p#.q@>>>>",
"@@@@>>>>>#>@>>>>>>>>>>>>>>>>>>>o#!>>>>>>>>>>>>>>>>>>>>>5#r@>>>>>",
"@@@@:/>>>#>>>>2>>>>>>>>>>>>>>>>>#m>o>>>>>>>>>>>/>>>>>>>5#s@:>>>>",
"@@>::/>>>#>>:::>>>>>>>>>>>>>>>>>#,>>>>>>>>>>>>>>>:>>>>>5#s/>>>>>",
"@@>:2>>>>#>>://>>>>>>>>>>>>>>>>>#,>>>>>>>>>>>>>>/:>>>>>p#s:>>>>>",
"@@@31@>>>#>>:1@@>>>>>>>>>>>>>>>>#m>>>>>>>>>>>>>>::@>>>op#s:>@>>>",
"@@@@[@>>>#>>/[@>:>>>>>>>/>>>>>>>#m>>>>>>>>>>>>>>>>>>>>op#s@>>>>>",
"@@@@@@>>>#>:@@::>>/>>>>::>>>::>>#,>>>>>>>>>>>>>::>>>>>>p#s@>>>>>",
"@@@@@>>>>#>/@@:>::>>>:>::>:>::>>#m>>>>>>>>>>:>>:>>>>>>>p#t@>>>>>",
"@@>>:>>>>#>@///@//>>>/:2/>:>/>>>#m>>>>>>>>>>/>>>>/>>>>l5#r@>>>>>",
"@@>>>>>>>#>>::>@>>>>>>:>>>:>>>>l#j>>>>>>>>>>>>>>>:>>>>l5#s>>>>>>",
"@>>>@>>(>#>@@@[@>>>>>>@@>@@>>>lu#>>>>>>>>>>>>>>>>>>>>>vw#!>>>>>>",
"5555p55x###p5pp5555555p555pp557###855p5555(5p5555p5555y###(55555",
"################################################################",
"szzzzzzzzzzzszsszzz###m^{zzzzszz{szzssssz{^###{{zzzzzz{{zzzzzzsz",
"@>>>>>>>>>>>>>@1@>@!#p~}1>@@1@@>>>>/>@@@>>-6#;+@>>>>@>>>>>>l>>>>",
"@>>>>>>>>>>>>>>>>>>>#A^@1>>>>>>>>>>>>>>>>>>(#B-@>>>>>>>@>>>>C>>>",
">>>>@>>>@>>>>>>>>>>>#]<>>>>>>>>>n>>>>>>>@>>(#^>>>>>>>>>@>>>>>>>>",
">>>>>>>>>>>>>>>>>>>>#_,>>>>>>>>>>>>>>>>>>>>(#D>>>>>>>>>>>>>>>>>>",
">>>>>>>>>>>>>>>>>>>>#_,:>>>>>>>>>>>>>>>>>>>(#^///>>>>>>>>>>>>>>>",
">>>>>>>>>>>>>>>>>>>>#_<:/>>>>>>>>>>>>>>>>>>5#^:/::>>>>>>>>>>>>>>",
"@>>>>>>>>>>>>>>>>>>>#A<>>>>>>>>>>>>>>>>>>>>(#^>@>>:>>>>>>>>>>>>>",
">>>>>>>>>>>>>@@>>>>>#A<@@>>>>>>>@>>>>@>>>>>(#|@@>>>@>>>@>>>>@>>>",
">>>>>>>>>>>>>@@:>>>>#A<@>>>>>>>>>>>>>>>>>>>(#^>>:>>>>>>>>>>>>>>>",
">>>>>>>>>>>>>@@:>>>>#A<>>>>>>>>>>>>>>>>>>>>(#^33:>>>>>>>>>>>>>>>",
">>>>>>>>>>>>>>@:>>>>#A<>>>>>>>>>>>>>>>>>>>>(#E4:>>>>>>>>>>>>>>>>",
">>>>>>>>>>>>>@@>>>>l#],>>>>>>>>>>>>>>>>>>>>F#{@>>>>>>>>>>>>>>>>>",
">>>>>>>>>>>>>@@@>>>7#(q>@>>>>>>>>>>>>>>>>>6w#G>@>>>>>>>>>>>>>>>>",
"AAAAAAAAAAAAAA_AAAA###u_AAAAAAAAAApAAAAAAAy###AAAAAAAAAAAppAAApp",
"################################################################",
"HGGGGGG###>GjGjGGGjjjGjjjGjjj!G###G!jGGGGGGjjHGGGGGjjj###>j!jjjj",
"qqqqqqqm#>>>kkqqqqqqqqaaaaaaaaqH#,;!qqqqaqqqqqqqqqqqqaa#> >qqqaa",
"@@>>>>>>#>>>>:>>>>:>>>>>>>>>>>>l#!G@:>>>>>>>>>>>>>>>>>>#>+q>>>>>",
"@@>:>>>>#>>>:>@@>/[[@>>>>>>>>>>>#G>>/>>>>>>>>>>>>>>>>>>#>s>>>>>>",
"@@>2>>>>#>>>311/>/11@>>>>:>>>>>>#G>>>/@>>>@@@>>>@>@@>>>#>s>>>>>>",
"@@>@>>>>#>>@@[@/>>>>:>>>>:>>>>>>#!>>>::>>>>@@>>>@>@/>>>#>s@>>>>>",
"@@>@:>>>#>>@@@@/:>>>>>>>>>>>>>>>#!>@/:>>>>>>>:>:>>@/>>>#>s@>>>>>",
"@@>@:>>>#>>:>@@>>>>>>>>>>>>>>>>>#!>::>>>>>>>>>>:>:@@>>>#>s>>>>>>",
"@@@@>>>>#>>>>>>>>>>>>>>>>>>>>>>>#!>:>>>>>:>>>>>>>:@>>>>#>>>>>>>>",
"@@@>>>>>#>>@@>@>>>>>>>>>>>>>>>>>#!>>>@>>>>>>>>>@@/@>>>>#>>>>>>>>",
"@@>>>>>>#>>@@@@@>>>>>>@>>>>>>>>>#!>>>>>>>>>>>>>>@@@>>>>#>>>@>>>>",
"@@>>>>>>#>!@@@@3>>>>>>>>>>>>>>>>#!>>>/>>>>>>>>>:@@@>>>>#>>>>>>>>",
"@3>>@>>>#>!@@3::>>>>>>>>>>>>>>>>#j>>4::>>>>>>>>>>3@/>>>#>>>>>>>>",
"@3>>@>>'#>m@@@:>>>>>>>>>>>>>>>>F#!>@@:>>>>>>>3>>>>>>>>l#>>>>>>>>",
"ll6lll6###>llll66666666l666666_###6lllll6llllllll6ll66###>666666",
"################################################################"};
