/* XPM */
static char * player_xpm[] = {
"32 32 343 2",
"  	c #FFAE92",
". 	c #FF7F27",
"+ 	c #FF7D1A",
"@ 	c #FE7F27",
"# 	c #FF8027",
"$ 	c #F47927",
"% 	c #DA6B27",
"& 	c #CA6227",
"* 	c #C86127",
"= 	c #C96127",
"- 	c #FB7D27",
"; 	c #F27827",
"> 	c #D86829",
", 	c #A8492B",
"' 	c #8B342E",
") 	c #933A30",
"! 	c #993E31",
"~ 	c #9A3F31",
"{ 	c #E97327",
"] 	c #B95828",
"^ 	c #9F402D",
"/ 	c #B03A34",
"( 	c #C8453B",
"_ 	c #E15942",
": 	c #EC6245",
"< 	c #E47127",
"[ 	c #A04B28",
"} 	c #933731",
"| 	c #CE4D3D",
"1 	c #EE5D45",
"2 	c #FB6749",
"3 	c #FF6B4B",
"4 	c #FA7C27",
"5 	c #EE7628",
"6 	c #D26529",
"7 	c #A7472C",
"8 	c #B14436",
"9 	c #E75E44",
"0 	c #FF6A4A",
"a 	c #E87227",
"b 	c #B35528",
"c 	c #983B2C",
"d 	c #AF3834",
"e 	c #CF483C",
"f 	c #EF5F45",
"g 	c #FD694A",
"h 	c #E06F23",
"i 	c #93451D",
"j 	c #752024",
"k 	c #AD3033",
"l 	c #CD403B",
"m 	c #DA4C3F",
"n 	c #E85943",
"o 	c #F86548",
"p 	c #FF6B4A",
"q 	c #FF6948",
"r 	c #FF6743",
"s 	c #FF6540",
"t 	c #DF6F20",
"u 	c #8B420F",
"v 	c #69181A",
"w 	c #AA2E30",
"x 	c #C53737",
"y 	c #C63635",
"z 	c #D14339",
"A 	c #E65641",
"B 	c #F05D43",
"C 	c #F15E42",
"D 	c #F37465",
"E 	c #F8948E",
"F 	c #FBA2A0",
"G 	c #FE7E27",
"H 	c #F97A18",
"I 	c #D96C20",
"J 	c #8C4615",
"K 	c #6F271D",
"L 	c #A83130",
"M 	c #C13E40",
"N 	c #C4464C",
"O 	c #C6484C",
"P 	c #CA4342",
"Q 	c #CB403D",
"R 	c #CB4C4D",
"S 	c #D48991",
"T 	c #E5C5D2",
"U 	c #EEDFED",
"V 	c #EB7423",
"W 	c #BE5A01",
"X 	c #9A541F",
"Y 	c #905E2D",
"Z 	c #8E592E",
"` 	c #914331",
" .	c #9E5C6A",
"..	c #B2879F",
"+.	c #BD869E",
"@.	c #C25C6A",
"#.	c #C05967",
"$.	c #BB849C",
"%.	c #C097AF",
"&.	c #CD9AA9",
"*.	c #D49AA5",
"=.	c #DD6D1F",
"-.	c #863A00",
";.	c #63452D",
">.	c #A6744C",
",.	c #AD754B",
"'.	c #7E4D36",
").	c #68556A",
"!.	c #8685A6",
"~.	c #A999B7",
"{.	c #C89CAE",
"].	c #D4ACBB",
"^.	c #D0C2D9",
"/.	c #CFC2D9",
"(.	c #D3AABA",
"_.	c #D69AA3",
":.	c #E26F1F",
"<.	c #9C4700",
"[.	c #885339",
"}.	c #B97A5D",
"|.	c #B87A5C",
"1.	c #7A4D3C",
"2.	c #402A44",
"3.	c #5B4A72",
"4.	c #958BA8",
"5.	c #CBC5D9",
"6.	c #E1DDEF",
"7.	c #E1E0F3",
"8.	c #E0DFF2",
"9.	c #E1DCEE",
"0.	c #F77B25",
"a.	c #E56F11",
"b.	c #C9672B",
"c.	c #9E5A39",
"d.	c #794C3C",
"e.	c #6D3E39",
"f.	c #87514B",
"g.	c #AE7268",
"h.	c #B58587",
"i.	c #9E8DA4",
"j.	c #8F91B1",
"k.	c #9091B0",
"l.	c #FF7E1A",
"m.	c #DF6E1E",
"n.	c #873F09",
"o.	c #52332B",
"p.	c #945E4E",
"q.	c #BE7A62",
"r.	c #D58D6E",
"s.	c #D59278",
"t.	c #BD8B7F",
"u.	c #977579",
"v.	c #5D4A67",
"w.	c #5E4A66",
"x.	c #967479",
"y.	c #AD8682",
"z.	c #E37020",
"A.	c #A34F15",
"B.	c #8D5339",
"C.	c #BB795E",
"D.	c #D48C6D",
"E.	c #DB9272",
"F.	c #E6A17C",
"G.	c #F0B289",
"H.	c #D7A37D",
"I.	c #8C6852",
"J.	c #8E6B54",
"K.	c #DBA880",
"L.	c #FCC294",
"M.	c #F87B25",
"N.	c #EA7423",
"O.	c #D26B32",
"P.	c #B06348",
"Q.	c #AF6F5B",
"R.	c #CE886B",
"S.	c #E19876",
"T.	c #E59F7A",
"U.	c #CF8E6E",
"V.	c #9A6351",
"W.	c #A5755C",
"X.	c #E4AE83",
"Y.	c #FFC695",
"Z.	c #FF7D19",
"`.	c #F37820",
" +	c #D46718",
".+	c #AD5434",
"++	c #804454",
"@+	c #774C5D",
"#+	c #976357",
"$+	c #AB7056",
"%+	c #B3735C",
"&+	c #B5745E",
"*+	c #B6745F",
"=+	c #C8876B",
"-+	c #E4A47E",
";+	c #F3B287",
">+	c #FB7D28",
",+	c #F27620",
"'+	c #D87132",
")+	c #A4643E",
"!+	c #715556",
"~+	c #4F446F",
"{+	c #34336E",
"]+	c #2D2751",
"^+	c #532A3A",
"/+	c #7E3C3E",
"(+	c #A15A4D",
"_+	c #BC795F",
":+	c #C98668",
"<+	c #CB8868",
"[+	c #CC8868",
"}+	c #EA742C",
"|+	c #BE5C30",
"1+	c #B77658",
"2+	c #D7A078",
"3+	c #CD9F83",
"4+	c #8A6E7F",
"5+	c #3B3A79",
"6+	c #2F3273",
"7+	c #6D3465",
"8+	c #A4384C",
"9+	c #AA3C38",
"0+	c #874134",
"a+	c #6B4435",
"b+	c #69463A",
"c+	c #6A473C",
"d+	c #E4712E",
"e+	c #A65135",
"f+	c #A16C5A",
"g+	c #D99C79",
"h+	c #E3A482",
"i+	c #C48A7C",
"j+	c #996B7A",
"k+	c #674E7C",
"l+	c #763A70",
"m+	c #AE3852",
"n+	c #BA3231",
"o+	c #A12729",
"p+	c #8B4A5A",
"q+	c #84738B",
"r+	c #81849F",
"s+	c #EC752D",
"t+	c #C35F2F",
"u+	c #B1654C",
"v+	c #C27B61",
"w+	c #CB8669",
"x+	c #C78467",
"y+	c #AC7467",
"z+	c #715069",
"A+	c #723161",
"B+	c #AD354A",
"C+	c #CA3A34",
"D+	c #D2453B",
"E+	c #D17A84",
"F+	c #C9AFC6",
"G+	c #C4C5E1",
"H+	c #FC7E28",
"I+	c #F6781F",
"J+	c #DF7136",
"K+	c #B46043",
"L+	c #8A5044",
"M+	c #6C423A",
"N+	c #4D3636",
"O+	c #342D3D",
"P+	c #6A2D3F",
"Q+	c #A9353E",
"R+	c #D0433A",
"S+	c #E85A44",
"T+	c #EF9391",
"U+	c #E7CBD9",
"V+	c #E2E3F6",
"W+	c #F77B29",
"X+	c #E1702F",
"Y+	c #BA5D40",
"Z+	c #754057",
"`+	c #344E75",
" @	c #4C7391",
".@	c #697491",
"+@	c #7F5377",
"@@	c #933657",
"#@	c #A43D3B",
"$@	c #A96662",
"%@	c #A49097",
"&@	c #A1A1AD",
"*@	c #FF8026",
"=@	c #E1703F",
"-@	c #914F5D",
";@	c #42567E",
">@	c #547C9C",
",@	c #5E85A5",
"'@	c #55749C",
")@	c #4B668F",
"!@	c #42607C",
"~@	c #305062",
"{@	c #002A37",
"]@	c #000000",
"^@	c #DF6F26",
"/@	c #8C4427",
"(@	c #141A2F",
"_@	c #112F43",
":@	c #425E76",
"<@	c #6087A7",
"[@	c #6B99BA",
"}@	c #6A98B8",
"|@	c #62849E",
"1@	c #535562",
"2@	c #491B00",
"3@	c #894109",
"4@	c #00052E",
"5@	c #0D1E55",
"6@	c #3A4475",
"7@	c #4C6390",
"8@	c #4C6D95",
"9@	c #456986",
"0@	c #7D666D",
"a@	c #BB6746",
"b@	c #D4681C",
"c@	c #EB7521",
"d@	c #BE5D1A",
"e@	c #8B4638",
"f@	c #553559",
"g@	c #142965",
"h@	c #122664",
"i@	c #543155",
"j@	c #8B4332",
"k@	c #BF5C10",
"l@	c #EC751F",
"m@	c #FF8028",
"n@	c #FE7E26",
"o@	c #F97C26",
"p@	c #DC6D24",
"q@	c #994A22",
"r@	c #562921",
"s@	c #FFAE91",
"t@	c #FF7E21",
"u@	c #FF7B0F",
"v@	c #F77A1E",
"w@	c #E67018",
"x@	c #DB6B13",
"y@	c #FFD6CA",
"z@	c #FFC3B1",
"A@	c #FFC3B0",
"B@	c #FFC4B1",
"  . + . . . . . . . . . . . . . . . . . . . . . . . . . . + .   ",
"  . + . . . . . . @ @ @ @ @ @ @ @ @ @ @ @ @ @ . . . . . . + .   ",
"  . + . . # # $ % & * = = = = = = = = = = * & % $ # # . . + .   ",
"  . + . . - ; > , ' ) ! ~ ! ! ! ! ! ! ~ ! ) ' , > ; - . . + .   ",
"  . + . . { ] ^ / ( _ : : : : : : : : : : _ ( / ^ ] { . . + .   ",
"  . + # # < [ } | 1 2 3 3 3 3 3 3 3 3 3 3 2 1 | } [ < # # + .   ",
"  . + 4 5 6 7 8 9 0 0 0 0 0 0 0 0 0 0 0 0 0 0 9 8 7 6 5 4 + .   ",
"  . + a b c d e f g 0 0 0 0 0 0 0 0 0 0 0 0 g f e d c b a + .   ",
"  # + h i j k l m n o p p q r s s r q p p o n m l k j i h + #   ",
"  # + t u v w x y z A B C D E F F E D C B A z y x w v u t + #   ",
"  G H I J K L M N O P Q R S T U U T S R Q P O N M L K J I H G   ",
"  V W X Y Z `  ...+.@.#.$.%.&.*.*.&.%.$.#.@.+... .` Z Y X W V   ",
"  =.-.;.>.,.'.).!.~.{.].^./.(._._.(./.^.].{.~.!.).'.,.>.;.-.=.  ",
"  :.<.[.}.|.1.2.3.4.5.6.7.8.6.9.9.6.8.7.6.5.4.3.2.1.|.}.[.<.:.  ",
"  0.a.b.c.d.e.f.g.h.i.j.j.k.j.j.j.j.k.j.j.i.h.g.f.e.d.c.b.a.0.  ",
"  # l.m.n.o.p.q.r.s.t.u.v.w.x.y.y.x.w.v.u.t.s.r.q.p.o.n.m.l.#   ",
"  # + z.A.B.C.D.E.F.G.H.I.J.K.L.L.K.J.I.H.G.F.E.D.C.B.A.z.+ #   ",
"  . + M.N.O.P.Q.R.S.T.U.V.W.X.Y.Y.X.W.V.U.T.S.R.Q.P.O.N.M.+ .   ",
"  # Z.`. +.+++@+#+$+%+&+*+=+-+;+;+-+=+*+&+%+$+#+@+++.+ +`.Z.#   ",
"  >+,+'+)+!+~+{+]+^+/+(+_+:+<+[+[+<+:+_+(+/+^+]+{+~+!+)+'+,+>+  ",
"  }+|+1+2+3+4+5+6+7+8+9+0+a+b+c+c+b+a+0+9+8+7+6+5+4+3+2+1+|+}+  ",
"  d+e+f+g+h+i+j+k+l+m+n+o+p+q+r+r+q+p+o+n+m+l+k+j+i+h+g+f+e+d+  ",
"  s+t+u+v+w+x+y+z+A+B+C+D+E+F+G+G+F+E+D+C+B+A+z+y+x+w+v+u+t+s+  ",
"  H+I+J+K+L+M+N+O+P+Q+R+S+T+U+V+V+U+T+S+R+Q+P+O+N+M+L+K+J+I+H+  ",
"  . Z.W+X+Y+Z+`+ @.@+@@@#@$@%@&@&@%@$@#@@@+@.@ @`+Z+Y+X+W+Z..   ",
"  . + *@. =@-@;@>@,@'@)@!@~@{@]@]@{@~@!@)@'@,@>@;@-@=@. *@+ .   ",
"  . + # . ^@/@(@_@:@<@[@}@|@1@2@2@1@|@}@[@<@:@_@(@/@^@. # + .   ",
"  . + # . m.3@4@5@6@7@8@9@0@a@b@b@a@0@9@8@7@6@5@4@3@m.. # + .   ",
"  . + . . c@d@e@f@g@h@i@j@k@l@m@m@l@k@j@i@h@g@f@e@d@c@. . + .   ",
"  . Z.. . n@o@p@q@r@r@q@p@o@n@. . n@o@p@q@r@r@q@p@o@n@. . Z..   ",
"s@t@u@t@t@t@t@v@w@x@x@w@v@t@t@t@t@t@t@v@w@x@x@w@v@t@t@t@t@u@t@s@",
"y@z@A@z@z@z@z@z@B@B@B@B@z@z@z@z@z@z@z@z@B@B@B@B@z@z@z@z@z@A@z@y@"};
