/* XPM */
static char * wall_xpm[] = {
"32 32 240 2",
"  	c #09AB08",
". 	c #23C522",
"+ 	c #31D430",
"@ 	c #30D530",
"# 	c #22C522",
"$ 	c #2FD42F",
"% 	c #23C422",
"& 	c #23C523",
"* 	c #22C523",
"= 	c #0DA90C",
"- 	c #0EA90C",
"; 	c #31D330",
"> 	c #31D431",
", 	c #09AB09",
"' 	c #09AA08",
") 	c #24C623",
"! 	c #0AAC09",
"~ 	c #30D32F",
"{ 	c #2FD52F",
"] 	c #514624",
"^ 	c #524224",
"/ 	c #0AAA09",
"( 	c #08AA07",
"_ 	c #08AB07",
": 	c #23C624",
"< 	c #09AC08",
"[ 	c #09AB07",
"} 	c #30D430",
"| 	c #554227",
"1 	c #573D27",
"2 	c #0AAB08",
"3 	c #24C523",
"4 	c #30D42F",
"5 	c #09AB0A",
"6 	c #30D330",
"7 	c #33D332",
"8 	c #504722",
"9 	c #554326",
"0 	c #36D132",
"a 	c #554026",
"b 	c #573D28",
"c 	c #32D431",
"d 	c #34D333",
"e 	c #514723",
"f 	c #35D232",
"g 	c #34D331",
"h 	c #554224",
"i 	c #514524",
"j 	c #28C226",
"k 	c #0FA90C",
"l 	c #564325",
"m 	c #544327",
"n 	c #32D32F",
"o 	c #37D133",
"p 	c #534224",
"q 	c #573E27",
"r 	c #39D035",
"s 	c #34D231",
"t 	c #0CAA09",
"u 	c #0DA90A",
"v 	c #07AC07",
"w 	c #573E26",
"x 	c #37D134",
"y 	c #544124",
"z 	c #5A3C29",
"A 	c #36D133",
"B 	c #0EAA0A",
"C 	c #0CAA0B",
"D 	c #32D330",
"E 	c #5A3D29",
"F 	c #564025",
"G 	c #2CC12A",
"H 	c #26C423",
"I 	c #0DAA0A",
"J 	c #12A80E",
"K 	c #593E27",
"L 	c #5A3D27",
"M 	c #583D27",
"N 	c #544025",
"O 	c #2DC228",
"P 	c #26C424",
"Q 	c #583E29",
"R 	c #554127",
"S 	c #39D134",
"T 	c #554126",
"U 	c #5B3D29",
"V 	c #583D26",
"W 	c #583D28",
"X 	c #593D29",
"Y 	c #0DAA0D",
"Z 	c #573F28",
"` 	c #544125",
" .	c #38D133",
"..	c #553F25",
"+.	c #7A573A",
"@.	c #7A563C",
"#.	c #583E28",
"$.	c #583F27",
"%.	c #79563C",
"&.	c #79573B",
"*.	c #5A3C27",
"=.	c #563F25",
"-.	c #2FC028",
";.	c #28C325",
">.	c #593D27",
",.	c #593D28",
"'.	c #3DCF36",
").	c #554225",
"!.	c #5A3D28",
"~.	c #15A60F",
"{.	c #12A70F",
"].	c #583E27",
"^.	c #553F27",
"/.	c #3BCF35",
"(.	c #554028",
"_.	c #593D2A",
":.	c #79563A",
"<.	c #5B3C25",
"[.	c #79553A",
"}.	c #966C4C",
"|.	c #966C4B",
"1.	c #745936",
"2.	c #745A36",
"3.	c #956D4C",
"4.	c #976C4B",
"5.	c #B7865F",
"6.	c #564024",
"7.	c #554125",
"8.	c #966D4C",
"9.	c #795639",
"0.	c #574026",
"a.	c #5A3C28",
"b.	c #554025",
"c.	c #6D6C69",
"d.	c #6E6B69",
"e.	c #78563B",
"f.	c #966C4D",
"g.	c #593C28",
"h.	c #956C4B",
"i.	c #785539",
"j.	c #966C4A",
"k.	c #B8855D",
"l.	c #B9855D",
"m.	c #5A3B27",
"n.	c #966D4B",
"o.	c #976C4A",
"p.	c #79563B",
"q.	c #6E6B6C",
"r.	c #6F6B6A",
"s.	c #593C26",
"t.	c #795539",
"u.	c #593C27",
"v.	c #78573A",
"w.	c #78563A",
"x.	c #583D2A",
"y.	c #7A5639",
"z.	c #B7855D",
"A.	c #B8855E",
"B.	c #7A5539",
"C.	c #956C4C",
"D.	c #966B4A",
"E.	c #78553B",
"F.	c #78553A",
"G.	c #5B3C28",
"H.	c #5A3C26",
"I.	c #5A3B26",
"J.	c #B9865D",
"K.	c #B8865D",
"L.	c #898785",
"M.	c #888787",
"N.	c #78573D",
"O.	c #B8865E",
"P.	c #B9865F",
"Q.	c #7B5538",
"R.	c #7B5638",
"S.	c #7A5638",
"T.	c #8A8683",
"U.	c #78563C",
"V.	c #7A563A",
"W.	c #B78660",
"X.	c #B9855C",
"Y.	c #7A5538",
"Z.	c #B7865E",
"`.	c #B6855F",
" +	c #B8855F",
".+	c #956C4D",
"++	c #986C49",
"@+	c #B9855E",
"#+	c #976B4A",
"$+	c #7A563B",
"%+	c #5B3D28",
"&+	c #976C49",
"*+	c #7A553A",
"=+	c #7B553A",
"-+	c #956D4B",
";+	c #5C3C27",
">+	c #5C3C26",
",+	c #966D4D",
"'+	c #593B27",
")+	c #795538",
"!+	c #785538",
"~+	c #5B3D27",
"{+	c #795438",
"]+	c #77553B",
"^+	c #976D4B",
"/+	c #79553B",
"(+	c #B8865F",
"_+	c #8B8783",
":+	c #8A8684",
"<+	c #898786",
"[+	c #888786",
"}+	c #976B49",
"|+	c #6F6B69",
"1+	c #6D6C6C",
"2+	c #B7855E",
"3+	c #7A5537",
"4+	c #706B69",
"5+	c #6F6C6A",
"6+	c #956D4D",
"7+	c #976D4C",
"8+	c #755741",
"9+	c #755743",
"0+	c #795638",
"a+	c #5B3C27",
"b+	c #5B3C26",
"c+	c #745743",
"d+	c #755841",
"e+	c #5A3C25",
"f+	c #795537",
"g+	c #976C4C",
"h+	c #5B3B25",
"i+	c #7B5537",
"j+	c #77563C",
"k+	c #B7855F",
"l+	c #B6865F",
"m+	c #B78760",
"n+	c #898684",
"o+	c #898685",
"p+	c #966C49",
"q+	c #878787",
"            . . . .     . .     + @ . .         . .     . # @ $ ",
"            % & & * = - . .     ; > . .   ,     . . '   . # @ $ ",
"    ) . !   ~ $ $ { ] ^ /   . . . . ( ' + @ . . ( ( @ + _ ( $ $ ",
"    : & < [ } $ $ { | 1 2   3 & . .   ' 4 $ . . 5   } 6 _ _ } $ ",
"$ 7 8 9 0 ;   ' ' _ a b c d e 9 f $       ' $ g h i j .   k l m ",
"n o p q r s t u 2 v a w 7 x y z A 4 B C     D x E F G H I J K L ",
"M N O P 9 M Q R S { T U V W E X k Y Z `  .~ ..V +.@.M #.Q $.%.&.",
"*.=.-.;.9 >.,.=.'.7 ).*.!.,.,.Q ~.{.].^./.s (._.:.:.<.*.,.>.[.:.",
"}.|.1.2.3.4.5.5.6.7.8.|.9.:.:.:.R 0.,.a.7.b.c.d.e.:.f.}.g.>.[.:.",
"|.h.i.[.4.j.k.l.m.,.n.o.:.[.[.p.*.,.,.,.,.>.q.r.e.9.|.}.s.>.t.:.",
"9.[.u.*.h.o.o.o.9.:.4.n.*.g.g.,.!.,.e.v.v.w._.x.:.:.9.y.w.9.z.A.",
"B.B.*.!.C.o.j.D.E.F.|.|.G.>.*.u.u.H.:.:.9.B.u.I.:.:.:.:.9.y.k.l.",
"J.K.B.[.t.y.y.:.L.M.N.t.w.t.5.K.O.P.t.y.5.J.K.5.9.9.h.C.9.9.j.o.",
"O.k.B.:.Q.R.S.y.T.L.U.9.:.V.W.A.X.O.t.Y.O.k.k.Z.:.:.8.j.Y.Y.|.o.",
"B.Y.:.9.`.A.A. +C..+o.|.y.:.y.Y.++4.>.L j.o.o.o.:.:.:.B.o.o.o.o.",
":.:.:.t.5.X.l.@+#+|.4.j.y.:.p.$+o.}.L %+|.o.&+|.:.:.:.9.|.4.j.&+",
"o.h.t.:.V.Y.j.o.*+y.j.j.:.:.*.L V.=+C.-+o.o.y.y.:.e.e.w.;+>+:.y.",
"4.|.i.F.&.:.o.o.y.t.,+C.p.%.'+u.w.t.|.o.4.4.:.:.Y.)+)+)+*.u.!+i.",
":.t.|.|.%+,.[.9.:.:.G.L ,.!.p.p.:.:.9.:.:.:.:.t.l.l.l.5.t.9.o.|.",
":.9.4.4.~+*.{+Y.Y.)+*.,.u.!.:.t.:.:.)+Y.Y.Y.:.F.K.O.O.5.i.]+^+o.",
":.9.4.o./+B.(+A.A.k.*+[.Z.5.|.3.~+H.5.A.A.A.H.*.&+++++|._+:+[.t.",
":.9.4.o.:.Y.O.l.l.X.Y.t.k.K.&+4.!.u.A.l.l.l.>.g.o.o.o.|.<+[+B.e.",
"o.|.i.:.:.t.}+o.o.o.A.O.B.Y.o.|.|+1+|.o.o.o.:.:.a.L j.o.w.e.!.,.",
"|.}.i.:.S.t.|.}.o.o.2+O.3+3+|.}.4+5+6+|.|.|.:.p.*.*.h.|.)+w.H.*.",
":.:.s.a.}.4.y.V.o.o.o.o.k.5.Y.B.:.e.y.:.:.:.:.:.:.:.:.B.5.X.K.@+",
":.p.H.>.C.o.:.V.|.|.o.o.k.5.Y.9.:.:.:.:.y.y.:.:.:.:.y.Y.O.l.l.l.",
":.9.^+7+Y.:.:.:.8+9+F.0+#+o.o.|.[.w.a+*.(+J.b+H.p.y.O.(+}+}+}+}+",
"t.t.|.o.*+:.S.9.c+d+e.:.4.|.|.j.Y.w.a+b+Z.O.b+L :.9.(+X.o.o.o.o.",
"o.C.)+t.*.I.5.(+S.w.>.*.t.t.H.e+W.A.O.W.f+Y.g+8.:.:.B.Y.o.o.o.o.",
"o.|.i.:.*.h+O.O.i+[.!.*.j+j+s.!.k+k.k.5.9.:.|.}.y.:.:.y.D.o.n.n.",
"o.|.i.9.l+m+}+D.o.o.V.e.n+o+U.$+p+D.D.j.t.:.w.t.|.o.o.|.Y.e.G.,.",
"o.|.i.:.A.K.o.o.o.|.:.e.[+q+j+:.o.o.o.j.9.:.:.9.|.o.o.o.9.:.E X "};
